<svg width="30" height="30" viewBox="0 0 30 30" fill="none" xmlns="http://www.w3.org/2000/svg">
<path d="M5.31392 22.4531C5.38365 22.1965 5.22955 21.8396 5.08248 21.5824C5.03669 21.5057 4.98701 21.4314 4.93365 21.3598C3.67228 19.4468 2.99998 17.2058 3.00006 14.9145C2.97955 8.3373 8.43346 3 15.1776 3C21.0592 3 25.9688 7.07461 27.1161 12.4834C27.288 13.2853 27.3748 14.1031 27.3751 14.9232C27.3751 21.5098 22.1315 26.9309 15.3874 26.9309C14.3151 26.9309 12.8678 26.6613 12.0786 26.4404C11.2893 26.2195 10.5012 25.9266 10.2979 25.848C10.09 25.7681 9.86912 25.727 9.64635 25.7268C9.40301 25.7258 9.16202 25.7743 8.93795 25.8691L4.96353 27.3035C4.87646 27.341 4.7842 27.3651 4.6899 27.375C4.61549 27.3748 4.54185 27.3598 4.47327 27.3309C4.40469 27.302 4.34252 27.2598 4.29037 27.2067C4.23821 27.1536 4.19711 27.0907 4.16944 27.0217C4.14176 26.9526 4.12807 26.8787 4.12916 26.8043C4.13405 26.739 4.14583 26.6744 4.16432 26.6115L5.31392 22.4531Z" stroke="#832215" stroke-width="2" stroke-miterlimit="10" stroke-linecap="round"/>
<path d="M17.9385 10.6875C17.816 12.3397 16.5635 13.6875 15.1885 13.6875C13.8135 13.6875 12.5588 12.34 12.4385 10.6875C12.3135 8.96875 13.5323 7.6875 15.1885 7.6875C16.8448 7.6875 18.0635 9 17.9385 10.6875Z" stroke="#832215" stroke-width="2" stroke-linecap="round" stroke-linejoin="round"/>
<path d="M15.1878 16.6875C12.4691 16.6875 9.70972 18.1875 9.19909 21.0188C9.13659 21.36 9.33066 21.6875 9.68816 21.6875H20.6878C21.0453 21.6875 21.2385 21.36 21.1769 21.0188C20.666 18.1875 17.9066 16.6875 15.1878 16.6875Z" stroke="#832215" stroke-width="2" stroke-miterlimit="10"/>
<path d="M10.6875 14.4375H7.1875M8.9375 12.6875V16.1875V12.6875Z" stroke="#832215" stroke-width="2" stroke-linecap="round" stroke-linejoin="round"/>
</svg>
