<svg width="35" height="35" viewBox="0 0 35 35" fill="none" xmlns="http://www.w3.org/2000/svg">
<path d="M5.25212 32.8203C4.78719 32.8181 4.3421 32.6317 4.01443 32.3018C3.68676 31.972 3.50326 31.5257 3.50417 31.0607C3.50825 30.884 3.53583 30.7086 3.58621 30.5392L4.84539 25.9844C4.89802 25.8162 4.83855 25.6467 4.7613 25.5127L4.74626 25.4854C4.7408 25.4765 4.71482 25.4402 4.69636 25.4136C4.67791 25.3869 4.65671 25.3582 4.63757 25.3302L4.62459 25.3117C3.03465 22.9019 2.18727 20.0783 2.18757 17.1913C2.17527 13.2545 3.71541 9.53506 6.52566 6.71318C9.43367 3.79971 13.3233 2.19531 17.4878 2.19531C21.0206 2.19357 24.4486 3.39523 27.2071 5.60234C29.9039 7.77275 31.7783 10.7977 32.4851 14.1254C32.7027 15.1363 32.8123 16.1675 32.8119 17.2016C32.8119 21.23 31.2642 25.0137 28.4533 27.8567C25.6178 30.7278 21.8101 32.3042 17.7325 32.3042C16.2969 32.3042 14.4601 31.9378 13.5783 31.689C12.5174 31.3923 11.5118 31.0054 11.4011 30.9644C11.2839 30.9195 11.1595 30.8963 11.034 30.896C10.8978 30.8952 10.763 30.9219 10.6375 30.9746L10.5794 30.9972L5.96648 32.6638C5.73992 32.7591 5.49781 32.8122 5.25212 32.8203Z" fill="black"/>
<path d="M18.2504 17C20.3125 17 22.1344 15.0582 22.3129 12.6711C22.4016 11.4719 22.0254 10.3535 21.2535 9.52266C20.4899 8.70195 19.4223 8.25 18.2504 8.25C17.0692 8.25 16.0008 8.69922 15.2426 9.51484C14.4758 10.3395 14.102 11.4602 14.1879 12.6703C14.3633 15.0578 16.1848 17 18.2504 17Z" fill="white"/>
<path d="M26.3508 24.1781C26.0211 22.3492 24.9918 20.8129 23.3746 19.7348C21.9383 18.7773 20.1184 18.25 18.25 18.25C16.3816 18.25 14.5617 18.7773 13.1254 19.7344C11.5082 20.8125 10.4789 22.3488 10.1492 24.1777C10.0738 24.5969 10.1762 25.0113 10.4301 25.3148C10.5452 25.4532 10.6898 25.564 10.8533 25.6393C11.0168 25.7146 11.195 25.7524 11.375 25.75H25.125C25.3051 25.7526 25.4834 25.7149 25.6471 25.6396C25.8107 25.5644 25.9554 25.4536 26.0707 25.3152C26.3238 25.0117 26.4262 24.5973 26.3508 24.1781Z" fill="white"/>
<path d="M11.0625 18.25V16.6875H12.625C12.7908 16.6875 12.9497 16.6217 13.0669 16.5044C13.1842 16.3872 13.25 16.2283 13.25 16.0625C13.25 15.8967 13.1842 15.7378 13.0669 15.6206C12.9497 15.5033 12.7908 15.4375 12.625 15.4375H11.0625V13.875C11.0625 13.7092 10.9967 13.5503 10.8794 13.4331C10.7622 13.3158 10.6033 13.25 10.4375 13.25C10.2717 13.25 10.1128 13.3158 9.99556 13.4331C9.87835 13.5503 9.8125 13.7092 9.8125 13.875V15.4375H8.25C8.08424 15.4375 7.92527 15.5033 7.80806 15.6206C7.69085 15.7378 7.625 15.8967 7.625 16.0625C7.625 16.2283 7.69085 16.3872 7.80806 16.5044C7.92527 16.6217 8.08424 16.6875 8.25 16.6875H9.8125V18.25C9.8125 18.4158 9.87835 18.5747 9.99556 18.6919C10.1128 18.8092 10.2717 18.875 10.4375 18.875C10.6033 18.875 10.7622 18.8092 10.8794 18.6919C10.9967 18.5747 11.0625 18.4158 11.0625 18.25Z" fill="white"/>
</svg>
